<?xml version="1.0" encoding="utf-8" ?>
<svg xmlns="http://www.w3.org/2000/svg" xmlns:xlink="http://www.w3.org/1999/xlink" width="46" height="45">
	<path fill="#B5B5B5" transform="translate(2.8125 2.8125)" d="M16.171875 37.96875C15.006899 37.96875 14.0625 37.024353 14.0625 35.859375C14.0625 34.694401 15.006899 33.75 16.171875 33.75C17.336851 33.75 18.28125 34.694401 18.28125 35.859375C18.28125 37.024353 17.336851 37.96875 16.171875 37.96875M30.234375 37.96875C29.069399 37.96875 28.125 37.024353 28.125 35.859375C28.125 34.694401 29.069399 33.75 30.234375 33.75C31.399351 33.75 32.34375 34.694401 32.34375 35.859375C32.34375 37.024353 31.399351 37.96875 30.234375 37.96875M1.40625 2.812501C0.62959957 2.812501 0 2.1829014 0 1.406251C0 0.62960052 0.62959957 4.7963567e-07 1.40625 4.7963567e-07L8.4375 4.7963567e-07C9.1078577 -0.00054962828 9.6854067 0.47215739 9.8173828 1.1293955L11.276367 8.437501L37.96875 8.437501C38.393459 8.4373779 38.795475 8.6292067 39.062553 8.9594288C39.329632 9.2896509 39.433163 9.7228889 39.344238 10.138185L35.125488 29.825686C34.986603 30.474318 34.413338 30.937502 33.75 30.937502L14.0625 30.937502C13.392142 30.938051 12.814593 30.465345 12.682617 29.808107L7.2861328 2.812501L1.40625 2.812501ZM15.213867 28.125002L32.616211 28.125002L36.228516 11.250001L11.838867 11.250001L15.213867 28.125002Z"/>
	<path fill="#B5B5B5" transform="translate(16.6816 3.60049)" d="M14.0625 7.6495094L10.037109 2.8155251L6.0117188 7.6495094L14.0625 7.6495094ZM7.875 1.0137674C8.4093475 0.37147179 9.2016029 0 10.037109 0C10.872616 0 11.664871 0.37147179 12.199219 1.0137674L20.074219 10.462009L0 10.462009L7.875 1.0137674Z"/>
</svg>
